<mxfile host="app.diagrams.net" modified="2021-05-17T15:40:09.332Z" agent="5.0 (Windows NT 10.0; Win64; x64) AppleWebKit/537.36 (KHTML, like Gecko) Chrome/90.0.4430.212 Safari/537.36" etag="SPMWLwLVVvT3Z0tIz18_" version="14.6.13" type="github">
  <diagram name="Page-1" id="efa7a0a1-bf9b-a30e-e6df-94a7791c09e9">
    <mxGraphModel dx="2250" dy="1883" grid="1" gridSize="10" guides="1" tooltips="1" connect="1" arrows="1" fold="1" page="1" pageScale="1" pageWidth="826" pageHeight="1169" background="#ffffff" math="0" shadow="0">
      <root>
        <mxCell id="0" />
        <mxCell id="1" parent="0" />
        <mxCell id="21" value="&lt;p style=&quot;margin: 4px 0px 0px; text-align: center; text-decoration: underline; font-size: 14px;&quot;&gt;&lt;strong style=&quot;font-size: 14px;&quot;&gt;Calendar&lt;/strong&gt;&lt;/p&gt;&lt;hr style=&quot;font-size: 14px;&quot;&gt;&lt;p style=&quot;margin: 0px 0px 0px 8px; font-size: 14px;&quot;&gt;IdCalendar&lt;/p&gt;&lt;p style=&quot;margin: 0px 0px 0px 8px; font-size: 14px;&quot;&gt;IdCompany&lt;/p&gt;&lt;p style=&quot;margin: 0px 0px 0px 8px; font-size: 14px;&quot;&gt;Name&lt;/p&gt;&lt;p style=&quot;margin: 0px 0px 0px 8px; font-size: 14px;&quot;&gt;Description&lt;/p&gt;&lt;p style=&quot;margin: 0px 0px 0px 8px; font-size: 14px;&quot;&gt;ValidUntil&lt;/p&gt;&lt;p style=&quot;margin: 0px 0px 0px 8px; font-size: 14px;&quot;&gt;CreatedAt&lt;/p&gt;&lt;p style=&quot;margin: 0px 0px 0px 8px; font-size: 14px;&quot;&gt;UpdatedAt&lt;/p&gt;&lt;p style=&quot;margin: 0px 0px 0px 8px; font-size: 14px;&quot;&gt;Enabled&lt;/p&gt;" style="verticalAlign=top;align=left;overflow=fill;fontSize=14;fontFamily=Helvetica;html=1;strokeColor=#003366;shadow=1;fillColor=#D4E1F5;fontStyle=1;labelBackgroundColor=none;" parent="1" vertex="1">
          <mxGeometry x="40.00000000000002" y="284.99999999999983" width="160" height="160" as="geometry" />
        </mxCell>
        <mxCell id="22" value="&lt;p style=&quot;margin: 4px 0px 0px ; text-align: center ; text-decoration: underline ; font-size: 14px&quot;&gt;&lt;font style=&quot;font-size: 14px&quot;&gt;&lt;span style=&quot;font-size: 14px&quot;&gt;User&lt;/span&gt;&lt;/font&gt;&lt;/p&gt;&lt;hr style=&quot;font-size: 14px&quot;&gt;&lt;div style=&quot;font-family: &amp;#34;consolas&amp;#34; , &amp;#34;courier new&amp;#34; , monospace ; line-height: 24px ; font-size: 14px&quot;&gt;&lt;font style=&quot;font-size: 14px&quot; color=&quot;#ff3333&quot;&gt;&lt;u style=&quot;font-size: 14px&quot;&gt;&lt;span style=&quot;font-size: 14px&quot;&gt;User_ID(PK)&lt;/span&gt;&lt;/u&gt;&lt;/font&gt;&lt;/div&gt;&lt;div style=&quot;font-family: &amp;#34;consolas&amp;#34; , &amp;#34;courier new&amp;#34; , monospace ; line-height: 24px ; font-size: 14px&quot;&gt;&lt;font style=&quot;font-size: 14px&quot;&gt;&lt;span style=&quot;font-size: 14px&quot;&gt;FName&lt;/span&gt;&lt;/font&gt;&lt;/div&gt;&lt;div style=&quot;font-family: &amp;#34;consolas&amp;#34; , &amp;#34;courier new&amp;#34; , monospace ; line-height: 24px ; font-size: 14px&quot;&gt;&lt;font style=&quot;font-size: 14px&quot;&gt;&lt;span style=&quot;font-size: 14px&quot;&gt;LName&lt;/span&gt;&lt;/font&gt;&lt;/div&gt;&lt;div style=&quot;font-family: &amp;#34;consolas&amp;#34; , &amp;#34;courier new&amp;#34; , monospace ; line-height: 24px ; font-size: 14px&quot;&gt;&lt;font style=&quot;font-size: 14px&quot;&gt;&lt;span style=&quot;font-size: 14px&quot;&gt;password&amp;nbsp;&lt;/span&gt;&lt;/font&gt;&lt;/div&gt;&lt;div style=&quot;font-family: &amp;#34;consolas&amp;#34; , &amp;#34;courier new&amp;#34; , monospace ; line-height: 24px ; font-size: 14px&quot;&gt;&lt;font style=&quot;font-size: 14px&quot;&gt;&lt;span style=&quot;font-size: 14px&quot;&gt;mail&lt;/span&gt;&lt;/font&gt;&lt;/div&gt;&lt;div style=&quot;font-family: &amp;#34;consolas&amp;#34; , &amp;#34;courier new&amp;#34; , monospace ; line-height: 24px ; font-size: 14px&quot;&gt;&lt;font style=&quot;font-size: 14px&quot;&gt;&lt;span style=&quot;font-size: 14px&quot;&gt;Mobile&lt;/span&gt;&lt;/font&gt;&lt;/div&gt;&lt;div style=&quot;font-family: &amp;#34;consolas&amp;#34; , &amp;#34;courier new&amp;#34; , monospace ; line-height: 24px ; font-size: 14px&quot;&gt;&lt;font style=&quot;font-size: 14px&quot;&gt;&lt;span style=&quot;font-size: 14px&quot;&gt;DO_Birth&amp;nbsp;&lt;/span&gt;&lt;/font&gt;&lt;/div&gt;&lt;div style=&quot;font-family: &amp;#34;consolas&amp;#34; , &amp;#34;courier new&amp;#34; , monospace ; line-height: 24px ; font-size: 14px&quot;&gt;&lt;font style=&quot;font-size: 14px&quot;&gt;&lt;span style=&quot;font-size: 14px&quot;&gt;city&amp;nbsp;&lt;/span&gt;&lt;/font&gt;&lt;/div&gt;&lt;div style=&quot;font-family: &amp;#34;consolas&amp;#34; , &amp;#34;courier new&amp;#34; , monospace ; line-height: 24px ; font-size: 14px&quot;&gt;&lt;font style=&quot;font-size: 14px&quot;&gt;&lt;span style=&quot;font-size: 14px&quot;&gt;country&lt;/span&gt;&lt;/font&gt;&lt;/div&gt;&lt;div style=&quot;font-family: &amp;#34;consolas&amp;#34; , &amp;#34;courier new&amp;#34; , monospace ; line-height: 24px ; font-size: 14px&quot;&gt;&lt;font style=&quot;font-size: 14px&quot;&gt;&lt;span style=&quot;font-size: 14px&quot;&gt;Status&lt;/span&gt;&lt;/font&gt;&lt;/div&gt;&lt;div style=&quot;font-family: &amp;#34;consolas&amp;#34; , &amp;#34;courier new&amp;#34; , monospace ; line-height: 24px ; font-size: 14px&quot;&gt;&lt;font style=&quot;font-size: 14px&quot;&gt;&lt;span style=&quot;font-size: 14px&quot;&gt;Sex&amp;nbsp;&lt;/span&gt;&lt;/font&gt;&lt;/div&gt;&lt;div style=&quot;font-family: &amp;#34;consolas&amp;#34; , &amp;#34;courier new&amp;#34; , monospace ; line-height: 24px ; font-size: 14px&quot;&gt;&lt;font style=&quot;font-size: 14px&quot;&gt;&lt;span style=&quot;font-size: 14px&quot;&gt;Job&lt;/span&gt;&lt;/font&gt;&lt;/div&gt;&lt;div style=&quot;font-family: &amp;#34;consolas&amp;#34; , &amp;#34;courier new&amp;#34; , monospace ; line-height: 24px ; font-size: 14px&quot;&gt;&lt;font style=&quot;font-size: 14px&quot;&gt;&lt;span style=&quot;font-size: 14px&quot;&gt;Education&lt;/span&gt;&lt;/font&gt;&lt;/div&gt;" style="verticalAlign=top;align=left;overflow=fill;fontSize=14;fontFamily=Helvetica;html=1;strokeColor=#003366;shadow=1;fillColor=#D4E1F5;fontStyle=1;labelBackgroundColor=none;" parent="1" vertex="1">
          <mxGeometry x="880" y="270" width="160" height="350" as="geometry" />
        </mxCell>
        <mxCell id="25" value="&lt;p style=&quot;margin: 4px 0px 0px; text-align: center; text-decoration: underline; font-size: 14px;&quot;&gt;&lt;strong style=&quot;font-size: 14px;&quot;&gt;Holiday&lt;/strong&gt;&lt;/p&gt;&lt;hr style=&quot;font-size: 14px;&quot;&gt;&lt;p style=&quot;margin: 0px 0px 0px 8px; font-size: 14px;&quot;&gt;IdHoliday&lt;/p&gt;&lt;p style=&quot;margin: 0px 0px 0px 8px; font-size: 14px;&quot;&gt;IdCalendar&lt;/p&gt;&lt;p style=&quot;margin: 0px 0px 0px 8px; font-size: 14px;&quot;&gt;Name&lt;/p&gt;&lt;p style=&quot;margin: 0px 0px 0px 8px; font-size: 14px;&quot;&gt;Description&lt;/p&gt;&lt;p style=&quot;margin: 0px 0px 0px 8px; font-size: 14px;&quot;&gt;Date&lt;/p&gt;&lt;p style=&quot;margin: 0px 0px 0px 8px; font-size: 14px;&quot;&gt;CreatedAt&lt;/p&gt;&lt;p style=&quot;margin: 0px 0px 0px 8px; font-size: 14px;&quot;&gt;UpdatedAt&lt;/p&gt;&lt;p style=&quot;margin: 0px 0px 0px 8px; font-size: 14px;&quot;&gt;Enabled&lt;/p&gt;" style="verticalAlign=top;align=left;overflow=fill;fontSize=14;fontFamily=Helvetica;html=1;strokeColor=#003366;shadow=1;fillColor=#D4E1F5;fontStyle=1;labelBackgroundColor=none;" parent="1" vertex="1">
          <mxGeometry x="-169.99999999999994" y="-409.9999999999996" width="160" height="160" as="geometry" />
        </mxCell>
        <mxCell id="26" value="&lt;p style=&quot;margin: 4px 0px 0px; text-align: center; text-decoration: underline; font-size: 14px;&quot;&gt;&lt;strong style=&quot;font-size: 14px;&quot;&gt;TimeSheet&lt;/strong&gt;&lt;/p&gt;&lt;hr style=&quot;font-size: 14px;&quot;&gt;&lt;p style=&quot;margin: 0px 0px 0px 8px; font-size: 14px;&quot;&gt;IdTimeSheet&lt;/p&gt;&lt;p style=&quot;margin: 0px 0px 0px 8px; font-size: 14px;&quot;&gt;Name&lt;/p&gt;&lt;p style=&quot;margin: 0px 0px 0px 8px; font-size: 14px;&quot;&gt;Description&lt;/p&gt;&lt;p style=&quot;margin: 0px 0px 0px 8px; font-size: 14px;&quot;&gt;IdProject&lt;/p&gt;&lt;p style=&quot;margin: 0px 0px 0px 8px; font-size: 14px;&quot;&gt;CreatedAt&lt;/p&gt;&lt;p style=&quot;margin: 0px 0px 0px 8px; font-size: 14px;&quot;&gt;UpdatedAt&lt;/p&gt;&lt;p style=&quot;margin: 0px 0px 0px 8px; font-size: 14px;&quot;&gt;Enabled&lt;/p&gt;&lt;p style=&quot;margin: 0px 0px 0px 8px; font-size: 14px;&quot;&gt;IdUser&lt;/p&gt;" style="verticalAlign=top;align=left;overflow=fill;fontSize=14;fontFamily=Helvetica;html=1;strokeColor=#003366;shadow=1;fillColor=#D4E1F5;fontStyle=1;labelBackgroundColor=none;" parent="1" vertex="1">
          <mxGeometry x="1060" y="720" width="160" height="170" as="geometry" />
        </mxCell>
        <mxCell id="27" value="&lt;blockquote style=&quot;margin: 0px 0px 0px 40px ; border: none ; padding: 0px ; font-size: 14px&quot;&gt;&lt;/blockquote&gt;&lt;strong style=&quot;font-size: 14px&quot;&gt;&lt;div style=&quot;text-align: center&quot;&gt;&lt;strong&gt;Posts&lt;/strong&gt;&lt;/div&gt;&lt;/strong&gt;&lt;hr style=&quot;font-size: 14px&quot;&gt;&lt;p style=&quot;margin: 0px 0px 0px 8px ; font-size: 14px&quot;&gt;&lt;font style=&quot;font-size: 14px&quot; color=&quot;#ff3333&quot;&gt;Post_id(PK)&lt;/font&gt;&lt;/p&gt;&lt;p style=&quot;margin: 0px 0px 0px 8px ; font-size: 14px&quot;&gt;&lt;font style=&quot;font-size: 14px&quot;&gt;User_id&amp;nbsp;&lt;/font&gt;&lt;/p&gt;&lt;p style=&quot;margin: 0px 0px 0px 8px ; font-size: 14px&quot;&gt;&lt;font style=&quot;font-size: 14px&quot;&gt;Post_date&amp;nbsp;&lt;/font&gt;&lt;/p&gt;&lt;p style=&quot;margin: 0px 0px 0px 8px ; font-size: 14px&quot;&gt;&lt;font style=&quot;font-size: 14px&quot;&gt;Post_content&amp;nbsp;&lt;/font&gt;&lt;/p&gt;&lt;blockquote style=&quot;margin: 0px 0px 0px 40px ; border: none ; padding: 0px ; font-size: 14px&quot;&gt;&lt;/blockquote&gt;&lt;span style=&quot;font-size: 14px&quot;&gt;&lt;font style=&quot;font-size: 14px&quot;&gt;&amp;nbsp; &amp;nbsp;&lt;/font&gt;&lt;br style=&quot;font-size: 14px&quot;&gt;&lt;/span&gt;" style="verticalAlign=top;align=left;overflow=fill;fontSize=14;fontFamily=Helvetica;html=1;strokeColor=#003366;shadow=1;fillColor=#D4E1F5;fontStyle=1;labelBackgroundColor=none;" parent="1" vertex="1">
          <mxGeometry x="1210" y="340" width="160" height="205" as="geometry" />
        </mxCell>
        <mxCell id="28" value="&lt;p style=&quot;margin: 4px 0px 0px; text-align: center; text-decoration: underline; font-size: 14px;&quot;&gt;&lt;strong style=&quot;font-size: 14px;&quot;&gt;Document&lt;/strong&gt;&lt;/p&gt;&lt;hr style=&quot;font-size: 14px;&quot;&gt;&lt;p style=&quot;margin: 0px 0px 0px 8px; font-size: 14px;&quot;&gt;IdDocument&lt;/p&gt;&lt;p style=&quot;margin: 0px 0px 0px 8px; font-size: 14px;&quot;&gt;Name&lt;/p&gt;&lt;p style=&quot;margin: 0px 0px 0px 8px; font-size: 14px;&quot;&gt;Description&lt;/p&gt;&lt;p style=&quot;margin: 0px 0px 0px 8px; font-size: 14px;&quot;&gt;ValidFrom&lt;/p&gt;&lt;p style=&quot;margin: 0px 0px 0px 8px; font-size: 14px;&quot;&gt;ValidUntil&lt;/p&gt;&lt;p style=&quot;margin: 0px 0px 0px 8px; font-size: 14px;&quot;&gt;DocumentContents&lt;/p&gt;&lt;p style=&quot;margin: 0px 0px 0px 8px; font-size: 14px;&quot;&gt;CreatedAt&lt;/p&gt;&lt;p style=&quot;margin: 0px 0px 0px 8px; font-size: 14px;&quot;&gt;UpdateAt&lt;/p&gt;&lt;p style=&quot;margin: 0px 0px 0px 8px; font-size: 14px;&quot;&gt;Enabled&lt;/p&gt;" style="verticalAlign=top;align=left;overflow=fill;fontSize=14;fontFamily=Helvetica;html=1;strokeColor=#003366;shadow=1;fillColor=#D4E1F5;fontStyle=1;labelBackgroundColor=none;" parent="1" vertex="1">
          <mxGeometry x="-400.0000000000001" y="1169.0000000000002" width="160" height="180" as="geometry" />
        </mxCell>
        <mxCell id="29" value="&lt;p style=&quot;margin: 4px 0px 0px ; text-align: center ; font-size: 14px&quot;&gt;&lt;font style=&quot;font-size: 14px&quot;&gt;&lt;span style=&quot;font-size: 14px&quot;&gt;Pages&lt;/span&gt;&lt;/font&gt;&lt;/p&gt;&lt;p style=&quot;margin: 4px 0px 0px ; font-size: 14px&quot;&gt;&lt;font style=&quot;font-size: 14px&quot; color=&quot;#ff3333&quot;&gt;&lt;span style=&quot;font-size: 14px&quot;&gt;- &lt;u style=&quot;font-size: 14px&quot;&gt;Page_id (PK)&lt;/u&gt;&lt;/span&gt;&lt;/font&gt;&lt;/p&gt;&lt;p style=&quot;margin: 4px 0px 0px ; font-size: 14px&quot;&gt;&lt;font style=&quot;font-size: 14px&quot;&gt;&lt;span style=&quot;font-size: 14px&quot;&gt;- Page_name&amp;nbsp;&lt;/span&gt;&lt;/font&gt;&lt;/p&gt;&lt;p style=&quot;margin: 4px 0px 0px ; font-size: 14px&quot;&gt;&lt;font style=&quot;font-size: 14px&quot;&gt;&lt;font style=&quot;font-size: 14px&quot;&gt;&lt;span style=&quot;font-size: 14px&quot;&gt;-Page_conten&lt;/span&gt;&lt;/font&gt;&lt;span style=&quot;font-size: 14px&quot;&gt;t&amp;nbsp;&lt;/span&gt;&lt;/font&gt;&lt;/p&gt;" style="verticalAlign=top;align=left;overflow=fill;fontSize=14;fontFamily=Helvetica;html=1;strokeColor=#003366;shadow=1;fillColor=#D4E1F5;fontStyle=1;labelBackgroundColor=none;" parent="1" vertex="1">
          <mxGeometry x="500.0000000000003" y="390.0000000000007" width="160" height="200" as="geometry" />
        </mxCell>
        <mxCell id="30" value="&lt;p style=&quot;margin: 4px 0px 0px ; text-align: center ; text-decoration: underline ; font-size: 14px&quot;&gt;Reactions&lt;/p&gt;&lt;hr style=&quot;font-size: 14px&quot;&gt;&lt;p style=&quot;margin: 0px 0px 0px 8px ; font-size: 14px&quot;&gt;&lt;font color=&quot;#ff3333&quot;&gt;Reaction_id(PK)&amp;nbsp;&lt;/font&gt;&lt;/p&gt;&lt;p style=&quot;margin: 0px 0px 0px 8px ; font-size: 14px&quot;&gt;Post_id&lt;/p&gt;&lt;p style=&quot;margin: 0px 0px 0px 8px ; font-size: 14px&quot;&gt;User_id&lt;/p&gt;" style="verticalAlign=top;align=left;overflow=fill;fontSize=14;fontFamily=Helvetica;html=1;strokeColor=#003366;shadow=1;fillColor=#D4E1F5;fontStyle=1;labelBackgroundColor=none;" parent="1" vertex="1">
          <mxGeometry x="1500" y="357.5" width="160" height="170" as="geometry" />
        </mxCell>
        <mxCell id="31" value="&lt;p style=&quot;margin: 4px 0px 0px; text-align: center; text-decoration: underline; font-size: 14px;&quot;&gt;&lt;strong style=&quot;font-size: 14px;&quot;&gt;TimeSheetCostCenter&lt;/strong&gt;&lt;/p&gt;&lt;hr style=&quot;font-size: 14px;&quot;&gt;&lt;p style=&quot;margin: 0px 0px 0px 8px; font-size: 14px;&quot;&gt;IdTimeSheetCostCenter&lt;/p&gt;&lt;p style=&quot;margin: 0px 0px 0px 8px; font-size: 14px;&quot;&gt;IdTimeSheet&lt;/p&gt;&lt;p style=&quot;margin: 0px 0px 0px 8px; font-size: 14px;&quot;&gt;IdCostCenter&lt;/p&gt;" style="verticalAlign=top;align=left;overflow=fill;fontSize=14;fontFamily=Helvetica;html=1;strokeColor=#003366;shadow=1;fillColor=#D4E1F5;fontStyle=1;labelBackgroundColor=none;" parent="1" vertex="1">
          <mxGeometry x="2070" y="1179.9999999999995" width="160" height="95" as="geometry" />
        </mxCell>
        <mxCell id="32" value="&lt;p style=&quot;margin: 4px 0px 0px; text-align: center; text-decoration: underline; font-size: 14px;&quot;&gt;&lt;strong style=&quot;font-size: 14px;&quot;&gt;CostCenter&lt;/strong&gt;&lt;/p&gt;&lt;hr style=&quot;font-size: 14px;&quot;&gt;&lt;p style=&quot;margin: 0px 0px 0px 8px; font-size: 14px;&quot;&gt;IdCostCenter&lt;/p&gt;&lt;p style=&quot;margin: 0px 0px 0px 8px; font-size: 14px;&quot;&gt;Name&lt;/p&gt;&lt;p style=&quot;margin: 0px 0px 0px 8px; font-size: 14px;&quot;&gt;Description&lt;/p&gt;&lt;p style=&quot;margin: 0px 0px 0px 8px; font-size: 14px;&quot;&gt;CreatedAt&lt;/p&gt;&lt;p style=&quot;margin: 0px 0px 0px 8px; font-size: 14px;&quot;&gt;UpdatedAt&lt;/p&gt;&lt;p style=&quot;margin: 0px 0px 0px 8px; font-size: 14px;&quot;&gt;Enabled&lt;/p&gt;" style="verticalAlign=top;align=left;overflow=fill;fontSize=14;fontFamily=Helvetica;html=1;strokeColor=#003366;shadow=1;fillColor=#D4E1F5;fontStyle=1;labelBackgroundColor=none;" parent="1" vertex="1">
          <mxGeometry x="1570" y="664.9999999999995" width="160" height="140" as="geometry" />
        </mxCell>
        <mxCell id="33" value="&lt;p style=&quot;margin: 4px 0px 0px ; text-align: center ; text-decoration: underline ; font-size: 14px&quot;&gt;Shares&lt;/p&gt;&lt;hr style=&quot;font-size: 14px&quot;&gt;&lt;p style=&quot;margin: 0px 0px 0px 8px ; font-size: 14px&quot;&gt;Sahre_id&lt;/p&gt;&lt;p style=&quot;margin: 0px 0px 0px 8px ; font-size: 14px&quot;&gt;IdProject&lt;/p&gt;&lt;p style=&quot;margin: 0px 0px 0px 8px ; font-size: 14px&quot;&gt;IdCostCenter&lt;/p&gt;" style="verticalAlign=top;align=left;overflow=fill;fontSize=14;fontFamily=Helvetica;html=1;strokeColor=#003366;shadow=1;fillColor=#D4E1F5;fontStyle=1;labelBackgroundColor=none;" parent="1" vertex="1">
          <mxGeometry x="1300" y="689.9999999999995" width="160" height="90" as="geometry" />
        </mxCell>
        <mxCell id="34" value="&lt;p style=&quot;margin: 4px 0px 0px ; text-align: center ; text-decoration: underline ; font-size: 16px&quot;&gt;&lt;font style=&quot;font-size: 16px ; font-weight: normal&quot;&gt;Page_likes&lt;/font&gt;&lt;/p&gt;&lt;hr style=&quot;font-size: 16px&quot;&gt;&lt;p style=&quot;margin: 0px 0px 0px 8px ; font-size: 16px&quot;&gt;&lt;font style=&quot;font-size: 16px&quot; color=&quot;#ff3333&quot;&gt;Like_id(PK)&lt;/font&gt;&lt;/p&gt;&lt;p style=&quot;margin: 0px 0px 0px 8px ; font-size: 16px&quot;&gt;&lt;font style=&quot;font-size: 16px ; font-weight: normal&quot;&gt;Page_id&lt;/font&gt;&lt;/p&gt;&lt;p style=&quot;margin: 0px 0px 0px 8px ; font-size: 16px&quot;&gt;&lt;font style=&quot;font-size: 16px ; font-weight: normal&quot;&gt;User_id&lt;/font&gt;&lt;/p&gt;" style="verticalAlign=top;align=left;overflow=fill;fontSize=14;fontFamily=Helvetica;html=1;strokeColor=#003366;shadow=1;fillColor=#D4E1F5;fontStyle=1;labelBackgroundColor=none;" parent="1" vertex="1">
          <mxGeometry x="440" y="770" width="160" height="110" as="geometry" />
        </mxCell>
        <mxCell id="35" value="&lt;p style=&quot;margin: 4px 0px 0px; text-align: center; text-decoration: underline; font-size: 14px;&quot;&gt;&lt;strong style=&quot;font-size: 14px;&quot;&gt;Tasks&lt;/strong&gt;&lt;/p&gt;&lt;hr style=&quot;font-size: 14px;&quot;&gt;&lt;p style=&quot;margin: 0px 0px 0px 8px; font-size: 14px;&quot;&gt;IdTask&lt;/p&gt;&lt;p style=&quot;margin: 0px 0px 0px 8px; font-size: 14px;&quot;&gt;Name&lt;/p&gt;&lt;p style=&quot;margin: 0px 0px 0px 8px; font-size: 14px;&quot;&gt;Description&lt;/p&gt;&lt;p style=&quot;margin: 0px 0px 0px 8px; font-size: 14px;&quot;&gt;Work&lt;/p&gt;&lt;p style=&quot;margin: 0px 0px 0px 8px; font-size: 14px;&quot;&gt;IdProject&lt;/p&gt;&lt;p style=&quot;margin: 0px 0px 0px 8px; font-size: 14px;&quot;&gt;StartDate&lt;/p&gt;&lt;p style=&quot;margin: 0px 0px 0px 8px; font-size: 14px;&quot;&gt;EndDate&lt;/p&gt;&lt;p style=&quot;margin: 0px 0px 0px 8px; font-size: 14px;&quot;&gt;CreatedAt&lt;/p&gt;&lt;p style=&quot;margin: 0px 0px 0px 8px; font-size: 14px;&quot;&gt;UpdatedAt&lt;/p&gt;&lt;p style=&quot;margin: 0px 0px 0px 8px; font-size: 14px;&quot;&gt;Enabled&lt;/p&gt;" style="verticalAlign=top;align=left;overflow=fill;fontSize=14;fontFamily=Helvetica;html=1;strokeColor=#003366;shadow=1;fillColor=#D4E1F5;fontStyle=1;labelBackgroundColor=none;" parent="1" vertex="1">
          <mxGeometry x="1520" y="-289.9999999999999" width="160" height="190" as="geometry" />
        </mxCell>
        <mxCell id="48" value="" style="endArrow=open;endSize=12;startArrow=diamondThin;startSize=14;startFill=0;edgeStyle=orthogonalEdgeStyle;exitX=1;exitY=0.25;rounded=0;fontSize=14;fontStyle=1;labelBackgroundColor=none;" parent="1" source="29" target="22" edge="1">
          <mxGeometry x="769.3599999999999" y="450" as="geometry">
            <mxPoint x="769.3599999999999" y="450" as="sourcePoint" />
            <mxPoint x="929.3599999999999" y="450" as="targetPoint" />
            <Array as="points">
              <mxPoint x="660" y="445" />
            </Array>
          </mxGeometry>
        </mxCell>
        <mxCell id="49" value="0..n" style="resizable=0;align=left;verticalAlign=top;labelBackgroundColor=none;fontSize=14;strokeColor=#003366;shadow=1;fillColor=#D4E1F5;fontStyle=1" parent="48" connectable="0" vertex="1">
          <mxGeometry x="-1" relative="1" as="geometry">
            <mxPoint x="8.919999999999803" y="3.039999999999177" as="offset" />
          </mxGeometry>
        </mxCell>
        <mxCell id="50" value="1" style="resizable=0;align=right;verticalAlign=top;labelBackgroundColor=none;fontSize=14;strokeColor=#003366;shadow=1;fillColor=#D4E1F5;fontStyle=1" parent="48" connectable="0" vertex="1">
          <mxGeometry x="1" relative="1" as="geometry">
            <mxPoint x="-10" as="offset" />
          </mxGeometry>
        </mxCell>
        <mxCell id="54" value="" style="endArrow=open;endSize=12;startArrow=diamondThin;startSize=14;startFill=0;edgeStyle=orthogonalEdgeStyle;exitX=0;exitY=0.25;rounded=0;fontSize=14;fontStyle=1;labelBackgroundColor=none;" parent="1" source="26" target="22" edge="1">
          <mxGeometry x="1209.36" y="170" as="geometry">
            <mxPoint x="1209.36" y="170" as="sourcePoint" />
            <mxPoint x="1369.36" y="170" as="targetPoint" />
          </mxGeometry>
        </mxCell>
        <mxCell id="55" value="0..n" style="resizable=0;align=left;verticalAlign=top;labelBackgroundColor=none;fontSize=14;strokeColor=#003366;shadow=1;fillColor=#D4E1F5;fontStyle=1" parent="54" connectable="0" vertex="1">
          <mxGeometry x="-1" relative="1" as="geometry">
            <mxPoint x="-30" y="7.499999999999728" as="offset" />
          </mxGeometry>
        </mxCell>
        <mxCell id="56" value="1" style="resizable=0;align=right;verticalAlign=top;labelBackgroundColor=none;fontSize=14;strokeColor=#003366;shadow=1;fillColor=#D4E1F5;fontStyle=1" parent="54" connectable="0" vertex="1">
          <mxGeometry x="1" relative="1" as="geometry">
            <mxPoint x="20" as="offset" />
          </mxGeometry>
        </mxCell>
        <mxCell id="57" value="" style="endArrow=open;endSize=12;startArrow=diamondThin;startSize=14;startFill=0;edgeStyle=orthogonalEdgeStyle;fontSize=14;fontStyle=1;labelBackgroundColor=none;" parent="1" source="27" target="26" edge="1">
          <mxGeometry x="1269.36" y="180" as="geometry">
            <mxPoint x="1269.36" y="180" as="sourcePoint" />
            <mxPoint x="1429.36" y="180" as="targetPoint" />
          </mxGeometry>
        </mxCell>
        <mxCell id="58" value="0..n" style="resizable=0;align=left;verticalAlign=top;labelBackgroundColor=none;fontSize=14;strokeColor=#003366;shadow=1;fillColor=#D4E1F5;fontStyle=1" parent="57" connectable="0" vertex="1">
          <mxGeometry x="-1" relative="1" as="geometry">
            <mxPoint x="10" as="offset" />
          </mxGeometry>
        </mxCell>
        <mxCell id="59" value="1" style="resizable=0;align=right;verticalAlign=top;labelBackgroundColor=none;fontSize=14;strokeColor=#003366;shadow=1;fillColor=#D4E1F5;fontStyle=1" parent="57" connectable="0" vertex="1">
          <mxGeometry x="1" relative="1" as="geometry">
            <mxPoint x="20" y="-20" as="offset" />
          </mxGeometry>
        </mxCell>
        <mxCell id="72" value="" style="endArrow=open;endSize=12;startArrow=diamondThin;startSize=14;startFill=0;edgeStyle=orthogonalEdgeStyle;entryX=0.25;entryY=1;rounded=0;fontSize=14;fontStyle=1;labelBackgroundColor=none;" parent="1" source="34" target="29" edge="1">
          <mxGeometry x="419.35999999999996" y="820" as="geometry">
            <mxPoint x="419.35999999999996" y="820" as="sourcePoint" />
            <mxPoint x="579.3599999999999" y="820" as="targetPoint" />
            <Array as="points">
              <mxPoint x="540" y="690" />
              <mxPoint x="540" y="690" />
            </Array>
          </mxGeometry>
        </mxCell>
        <mxCell id="73" value="0..n" style="resizable=0;align=left;verticalAlign=top;labelBackgroundColor=none;fontSize=14;strokeColor=#003366;shadow=1;fillColor=#D4E1F5;fontStyle=1" parent="72" connectable="0" vertex="1">
          <mxGeometry x="-1" relative="1" as="geometry">
            <mxPoint x="10" y="-26.160000000000235" as="offset" />
          </mxGeometry>
        </mxCell>
        <mxCell id="74" value="1" style="resizable=0;align=right;verticalAlign=top;labelBackgroundColor=none;fontSize=14;strokeColor=#003366;shadow=1;fillColor=#D4E1F5;fontStyle=1" parent="72" connectable="0" vertex="1">
          <mxGeometry x="1" relative="1" as="geometry">
            <mxPoint x="-11.080000000000421" as="offset" />
          </mxGeometry>
        </mxCell>
        <mxCell id="84" value="" style="endArrow=open;endSize=12;startArrow=diamondThin;startSize=14;startFill=0;edgeStyle=orthogonalEdgeStyle;fontSize=14;fontStyle=1;labelBackgroundColor=none;" parent="1" source="27" target="22" edge="1">
          <mxGeometry x="1389.36" y="130" as="geometry">
            <mxPoint x="1389.36" y="130" as="sourcePoint" />
            <mxPoint x="1549.36" y="130" as="targetPoint" />
            <Array as="points">
              <mxPoint x="1160" y="445" />
              <mxPoint x="1160" y="445" />
            </Array>
          </mxGeometry>
        </mxCell>
        <mxCell id="85" value="0..n" style="resizable=0;align=left;verticalAlign=top;labelBackgroundColor=none;fontSize=14;strokeColor=#003366;shadow=1;fillColor=#D4E1F5;fontStyle=1" parent="84" connectable="0" vertex="1">
          <mxGeometry x="-1" relative="1" as="geometry">
            <mxPoint x="-30" as="offset" />
          </mxGeometry>
        </mxCell>
        <mxCell id="86" value="1" style="resizable=0;align=right;verticalAlign=top;labelBackgroundColor=none;fontSize=14;strokeColor=#003366;shadow=1;fillColor=#D4E1F5;fontStyle=1" parent="84" connectable="0" vertex="1">
          <mxGeometry x="1" relative="1" as="geometry">
            <mxPoint x="20" y="2.7284841053187846e-13" as="offset" />
          </mxGeometry>
        </mxCell>
        <mxCell id="90" value="" style="endArrow=open;endSize=12;startArrow=diamondThin;startSize=14;startFill=0;edgeStyle=orthogonalEdgeStyle;fontSize=14;fontStyle=1;labelBackgroundColor=none;" parent="1" source="25" target="21" edge="1">
          <mxGeometry x="620" y="340" as="geometry">
            <mxPoint x="620" y="340" as="sourcePoint" />
            <mxPoint x="780" y="340" as="targetPoint" />
          </mxGeometry>
        </mxCell>
        <mxCell id="91" value="0..n" style="resizable=0;align=left;verticalAlign=top;labelBackgroundColor=none;fontSize=14;strokeColor=#003366;shadow=1;fillColor=#D4E1F5;fontStyle=1" parent="90" connectable="0" vertex="1">
          <mxGeometry x="-1" relative="1" as="geometry">
            <mxPoint x="10" as="offset" />
          </mxGeometry>
        </mxCell>
        <mxCell id="92" value="1" style="resizable=0;align=right;verticalAlign=top;labelBackgroundColor=none;fontSize=14;strokeColor=#003366;shadow=1;fillColor=#D4E1F5;fontStyle=1" parent="90" connectable="0" vertex="1">
          <mxGeometry x="1" relative="1" as="geometry">
            <mxPoint x="20" y="-24.99999999999981" as="offset" />
          </mxGeometry>
        </mxCell>
        <mxCell id="103" value="1" style="endArrow=open;endSize=12;startArrow=diamondThin;startSize=14;startFill=1;edgeStyle=orthogonalEdgeStyle;align=left;verticalAlign=bottom;fontSize=14;fontStyle=1;labelBackgroundColor=none;" parent="1" source="21" edge="1">
          <mxGeometry x="-0.8181818181818175" y="4.999999999999702" relative="1" as="geometry">
            <mxPoint x="80" y="510" as="sourcePoint" />
            <mxPoint x="310" y="365" as="targetPoint" />
            <mxPoint as="offset" />
          </mxGeometry>
        </mxCell>
        <mxCell id="113" value="" style="endArrow=block;endFill=1;edgeStyle=orthogonalEdgeStyle;align=left;verticalAlign=top;exitX=0;exitY=0.75;rounded=0;fontSize=14;fontStyle=1;labelBackgroundColor=none;" parent="1" source="26" edge="1">
          <mxGeometry x="-1" relative="1" as="geometry">
            <mxPoint x="910" y="840" as="sourcePoint" />
            <mxPoint x="660" y="590" as="targetPoint" />
            <Array as="points">
              <mxPoint x="660" y="808" />
            </Array>
          </mxGeometry>
        </mxCell>
        <mxCell id="114" value="1" style="resizable=0;align=left;verticalAlign=bottom;labelBackgroundColor=none;fontSize=14;fontStyle=1" parent="113" connectable="0" vertex="1">
          <mxGeometry x="-1" relative="1" as="geometry">
            <mxPoint x="-19.99999999999982" y="2.499999999999909" as="offset" />
          </mxGeometry>
        </mxCell>
        <mxCell id="GmQorms077pE3O6Xw-ek-114" style="edgeStyle=orthogonalEdgeStyle;rounded=0;orthogonalLoop=1;jettySize=auto;html=1;fontSize=14;fontStyle=1;labelBackgroundColor=none;" edge="1" parent="1" source="22" target="22">
          <mxGeometry relative="1" as="geometry" />
        </mxCell>
        <mxCell id="GmQorms077pE3O6Xw-ek-115" value="" style="endArrow=open;html=1;endSize=12;startArrow=diamondThin;startSize=14;startFill=0;edgeStyle=orthogonalEdgeStyle;labelBackgroundColor=none;fontSize=14;fontColor=#000000;entryX=1;entryY=0.634;entryDx=0;entryDy=0;entryPerimeter=0;" edge="1" parent="1" source="30" target="27">
          <mxGeometry relative="1" as="geometry">
            <mxPoint x="1500" y="471" as="sourcePoint" />
            <mxPoint x="1380" y="471" as="targetPoint" />
            <Array as="points">
              <mxPoint x="1370" y="460" />
            </Array>
          </mxGeometry>
        </mxCell>
        <mxCell id="GmQorms077pE3O6Xw-ek-116" value="0..n" style="edgeLabel;resizable=0;html=1;align=left;verticalAlign=top;" connectable="0" vertex="1" parent="GmQorms077pE3O6Xw-ek-115">
          <mxGeometry x="-1" relative="1" as="geometry">
            <mxPoint x="-30" as="offset" />
          </mxGeometry>
        </mxCell>
        <mxCell id="GmQorms077pE3O6Xw-ek-117" value="1" style="edgeLabel;resizable=0;html=1;align=right;verticalAlign=top;" connectable="0" vertex="1" parent="GmQorms077pE3O6Xw-ek-115">
          <mxGeometry x="1" relative="1" as="geometry">
            <mxPoint x="20" as="offset" />
          </mxGeometry>
        </mxCell>
        <mxCell id="GmQorms077pE3O6Xw-ek-121" value="" style="endArrow=open;html=1;endSize=12;startArrow=diamondThin;startSize=14;startFill=0;edgeStyle=orthogonalEdgeStyle;labelBackgroundColor=none;fontSize=14;fontColor=#000000;" edge="1" parent="1" source="33">
          <mxGeometry relative="1" as="geometry">
            <mxPoint x="1470" y="630.0888235294117" as="sourcePoint" />
            <mxPoint x="1360" y="530" as="targetPoint" />
            <Array as="points">
              <mxPoint x="1360" y="545" />
            </Array>
          </mxGeometry>
        </mxCell>
        <mxCell id="GmQorms077pE3O6Xw-ek-122" value="0..n" style="edgeLabel;resizable=0;html=1;align=left;verticalAlign=top;" connectable="0" vertex="1" parent="GmQorms077pE3O6Xw-ek-121">
          <mxGeometry x="-1" relative="1" as="geometry">
            <mxPoint x="-30" as="offset" />
          </mxGeometry>
        </mxCell>
        <mxCell id="GmQorms077pE3O6Xw-ek-123" value="1" style="edgeLabel;resizable=0;html=1;align=right;verticalAlign=top;" connectable="0" vertex="1" parent="GmQorms077pE3O6Xw-ek-121">
          <mxGeometry x="1" relative="1" as="geometry">
            <mxPoint x="20" as="offset" />
          </mxGeometry>
        </mxCell>
      </root>
    </mxGraphModel>
  </diagram>
</mxfile>
